<?xml version="1.0" encoding="UTF-8" standalone="no"?>
<svg width="689px" height="240px" viewBox="0 0 689 240" version="1.1" xmlns="http://www.w3.org/2000/svg" xmlns:xlink="http://www.w3.org/1999/xlink" xmlns:sketch="http://www.bohemiancoding.com/sketch/ns">
    <!-- Generator: Sketch 3.3 (11970) - http://www.bohemiancoding.com/sketch -->
    <title>logo</title>
    <desc>Created with Sketch.</desc>
    <defs></defs>
    <g id="Page-2" stroke="none" stroke-width="1" fill="none" fill-rule="evenodd" sketch:type="MSPage">
        <g id="logo" sketch:type="MSLayerGroup" transform="translate(0.000000, -37.000000)">
            <path d="M70,258 C70,258 71.9999976,268 87,268 C102.000002,268 615,272 629,270 C643,268 643,255 643,255" id="Line" stroke="#FF655D" stroke-width="12" stroke-linecap="round" sketch:type="MSShapeGroup"></path>
            <path d="M51,169 C51.2097547,152.074 54.5176245,147.025399 69,138" id="Path-2" stroke="#FF655D" stroke-width="12" stroke-linecap="round" sketch:type="MSShapeGroup" transform="translate(60.000000, 153.500000) scale(-1, 1) translate(-60.000000, -153.500000) "></path>
            <g id="lifeasplay" transform="translate(0.000000, 165.000000)" sketch:type="MSShapeGroup">
                <path d="M93.6875,94 L93.6875,3.0625 L145.0625,3.0625 L145.0625,13.09375 L105.5,13.09375 L105.5,44.40625 L140.046875,44.40625 L140.046875,53.546875 L105.5,53.546875 L105.5,94 L93.6875,94 Z M160.0625,94 L160.0625,3.0625 L211.4375,3.0625 L211.4375,13.09375 L171.875,13.09375 L171.875,41.734375 L206.421875,41.734375 L206.421875,50.828125 L171.875,50.828125 L171.875,83.96875 L214.625,83.96875 L214.625,94 L160.0625,94 Z M233.328125,94 L222.359375,94 L259.625,3.0625 L271.578125,3.0625 L305.984375,94 L293.1875,94 L283.765625,68.96875 L243.640625,68.96875 L233.328125,94 Z M247.203125,59.875 L280.25,59.875 L264.3125,17.640625 L247.203125,59.875 Z M314.140625,73.5625 L326,73.5625 L326,74.125 C326,79.1562752 327.77342,82.6640526 331.320312,84.6484375 C334.867205,86.6328224 339.59372,87.625 345.5,87.625 C350.656276,87.625 354.984357,86.1172026 358.484375,83.1015625 C361.984393,80.0859224 363.734375,76.1250245 363.734375,71.21875 C363.734375,67.21873 362.23439,63.9531377 359.234375,61.421875 C356.20311,58.9218625 351.625031,56.4218875 345.5,53.921875 L340.765625,52 C334.328093,49.3437367 329.515641,46.7109505 326.328125,44.1015625 C323.140609,41.4921745 320.765633,38.6093908 319.203125,35.453125 C317.640617,32.2968592 316.859375,28.7656445 316.859375,24.859375 C316.859375,17.9843406 319.289038,12.1797112 324.148438,7.4453125 C329.007837,2.71091383 336.609323,0.34375 346.953125,0.34375 C356.453172,0.34375 363.140606,2.10154492 367.015625,5.6171875 C370.890644,9.13283008 372.828125,13.2343516 372.828125,17.921875 L372.828125,18.53125 L360.96875,18.53125 L360.96875,17.921875 C360.96875,16.4531177 360.375006,14.9921948 359.1875,13.5390625 C357.999994,12.0859302 356.210949,11.0390657 353.820312,10.3984375 C351.429676,9.7578093 348.812514,9.4375 345.96875,9.4375 C340.156221,9.4375 335.851576,10.8906105 333.054688,13.796875 C330.257799,16.7031395 328.859375,20.0156064 328.859375,23.734375 C328.859375,26.2343875 329.523431,28.5859265 330.851562,30.7890625 C332.179694,32.9921985 334.007801,34.8203052 336.335938,36.2734375 C338.664074,37.7265698 342.578098,39.656238 348.078125,42.0625 L353.65625,44.5 C362.562545,48.3437692 368.51561,52.4062286 371.515625,56.6875 C374.48439,60.9375213 375.96875,65.5156005 375.96875,70.421875 C375.96875,75.015648 374.757825,79.4452912 372.335938,83.7109375 C369.91405,87.9765838 366.554709,91.2187389 362.257812,93.4375 C357.960916,95.6562611 352.234411,96.765625 345.078125,96.765625 C338.296841,96.765625 332.632835,95.9531331 328.085938,94.328125 C323.53904,92.7031169 320.078137,90.0312686 317.703125,86.3125 C315.328113,82.5937314 314.140625,78.531272 314.140625,74.125 L314.140625,73.5625 Z M400.90625,94 L389.09375,94 L389.09375,3.0625 L414.40625,3.0625 C424.062548,3.0625 430.867168,4.04686516 434.820312,6.015625 C438.773457,7.98438484 441.757802,10.8749809 443.773438,14.6875 C445.789073,18.5000191 446.796875,22.9218498 446.796875,27.953125 C446.796875,36.4844177 443.898466,43.6405961 438.101562,49.421875 C432.304659,55.2031539 423.656308,58.09375 412.15625,58.09375 L400.90625,58.09375 L400.90625,94 Z M400.90625,49 L408.875,49 C419.343802,49 426.242171,46.9843952 429.570312,42.953125 C432.898454,38.9218548 434.5625,34.0937781 434.5625,28.46875 C434.5625,23.5937256 433.226576,19.6640774 430.554688,16.6796875 C427.882799,13.6952976 422.578165,12.203125 414.640625,12.203125 L400.90625,12.203125 L400.90625,49 Z M459.125,94 L459.125,3.0625 L470.9375,3.0625 L470.9375,83.96875 L518.65625,83.96875 L518.65625,94 L459.125,94 Z M533.328125,94 L522.359375,94 L559.625,3.0625 L571.578125,3.0625 L605.984375,94 L593.1875,94 L583.765625,68.96875 L543.640625,68.96875 L533.328125,94 Z M547.203125,59.875 L580.25,59.875 L564.3125,17.640625 L547.203125,59.875 Z" id="IFEASPLAY" fill="#393939"></path>
                <path d="M75.4375,94 L63.625,94 L63.625,3.0625 L75.4375,3.0625 L75.4375,94 Z" id="Path" fill="#FF655D"></path>
                <path d="M649,94 L638,94 L638,51 L609,3 L623,3 L645,40 L668,3 L679,3 L650,51 L649,94 Z" id="Path" fill="#FF655D"></path>
                <path d="M0.625,93 L0.625,2.0625 L12.4375,2.0625 L12.4375,82.96875 L60.15625,82.96875 L60.15625,93 L0.625,93 Z" id="L" fill="#393939"></path>
            </g>
            <g id="Oval-1-+-Oval-2" transform="translate(597.000000, 138.000000)" sketch:type="MSShapeGroup">
                <circle id="Oval-1" stroke="#457181" stroke-width="2" fill="#FFFFFF" cx="16.5" cy="16.5" r="16.5"></circle>
                <circle id="Oval-2" fill="#393939" cx="11.5" cy="12.5" r="5.5"></circle>
            </g>
            <g id="Oval-1-+-Oval-2-Copy" transform="translate(655.000000, 139.000000)" sketch:type="MSShapeGroup">
                <circle id="Oval-1" stroke="#457181" stroke-width="2" fill="#FFFFFF" cx="16.5" cy="16.5" r="16.5"></circle>
                <circle id="Oval-2" fill="#393939" cx="11.5" cy="13.5" r="5.5"></circle>
            </g>
            <g id="Line-+-Line" transform="translate(396.000000, 130.000000)" stroke="#393939" stroke-width="3" stroke-linecap="square" sketch:type="MSShapeGroup">
                <path d="M12,0 L0.500000003,39.5" id="Line"></path>
                <path d="M38.5,9 L38.5,42" id="Line"></path>
            </g>
            <g id="animals" transform="translate(439.616370, 84.110616) rotate(54.000000) translate(-439.616370, -84.110616) translate(379.616370, 24.110616)" fill="#393939" sketch:type="MSShapeGroup">
                <g id="Group" transform="translate(0.000000, 1.000000)">
                    <path d="M111.454519,28.9746522 C110.27921,26.6833478 108.956988,24.4905942 107.512337,22.3963913 L114.049992,20.3514638 C116.645465,19.563058 118.188058,16.705087 117.429004,14.0934928 C116.645465,11.4818986 113.805136,9.92972464 111.209663,10.6934928 L105.99423,12.3195797 L107.561309,7.56450725 C108.344848,4.95291304 107.047111,2.09494203 104.451638,1.30653623 C101.856165,0.518130435 99.0158354,1.82392754 98.2322963,4.43552174 L96.126535,10.3485652 C87.6055473,3.74566667 77.3705679,0.000739130435 66.8662469,0.000739130435 C41.9643951,0.000739130435 30.0399095,18.7992899 26.4160412,30.0094348 C22.2779753,42.7963913 23.5512263,57.4065362 30.0399095,69.9471159 C30.554107,70.7355217 30.8234486,71.5239275 31.3376461,72.2876957 L3.05678189,86.3804493 C-0.665028807,88.4007391 0.191967078,91.8500145 0.730650206,93.1558116 C25.8039012,132.674652 72.8407325,116.389145 83.1981399,111.412333 C125.68065,87.6616087 123.427975,49.8674058 111.454519,28.9746522 L111.454519,28.9746522 Z M78.5213909,102.296391 C69.7065761,106.731174 34.5942305,119.000739 12.3857942,92.9094348 L40.6666584,78.8166812 C41.9643951,78.0282754 44.8292099,75.5645072 42.4785926,71.252913 C40.9115144,69.1587101 39.8831193,67.0891449 38.8547243,65.2413188 C33.6637778,54.794942 32.6353827,43.0674058 35.9899095,32.8920435 C38.8547243,24.2688551 47.7185103,9.92972464 66.8417613,9.92972464 C81.1168642,9.92972464 95.1226255,19.3166812 102.370362,33.4094348 C114.294848,54.4007391 111.72386,84.7543623 78.5213909,102.296391 L78.5213909,102.296391 Z" id="Shape"></path>
                    <ellipse id="Oval" cx="74.4812675" cy="26.1905942" rx="5.01954733" ry="5.05072464"></ellipse>
                </g>
            </g>
        </g>
    </g>
</svg>