<?xml version="1.0" encoding="UTF-8" standalone="no"?>
<svg width="83px" height="56px" viewBox="0 0 83 56" version="1.1" xmlns="http://www.w3.org/2000/svg" xmlns:xlink="http://www.w3.org/1999/xlink" xmlns:sketch="http://www.bohemiancoding.com/sketch/ns">
    <!-- Generator: Sketch 3.3 (11970) - http://www.bohemiancoding.com/sketch -->
    <title>mail</title>
    <desc>Created with Sketch.</desc>
    <defs></defs>
    <g id="Page-2" stroke="none" stroke-width="1" fill="none" fill-rule="evenodd" sketch:type="MSPage">
        <g id="Desktop-HD" sketch:type="MSArtboardGroup" transform="translate(-679.000000, -1897.000000)" fill="#393939">
            <g id="mail" sketch:type="MSLayerGroup" transform="translate(525.000000, 1897.000000)">
                <g transform="translate(154.000000, 0.000000)" id="Shape" sketch:type="MSShapeGroup">
                    <path d="M81.2339633,0.0320239521 L1.76586735,0.0320239521 C1.75384082,0.0320239521 1.74198367,0.0331976048 1.73012653,0.0333652695 L1.73029592,0.0338682635 C0.771730612,0.0528143713 0,0.825748503 0,1.78009581 L0,54.2199042 C0,55.185988 0.790871429,55.967976 1.76586735,55.967976 L81.2339633,55.967976 C82.209298,55.967976 83,55.185988 83,54.2199042 L83,1.78009581 C83,0.813844311 82.209298,0.0320239521 81.2339633,0.0320239521 L81.2339633,0.0320239521 Z M76.9709816,3.52816766 L53.4970571,26.7631377 C53.4967184,26.7634731 53.4963796,26.7636407 53.4960408,26.763976 L41.5,38.6381557 L29.5039592,26.763976 C29.5032816,26.7633054 29.5026041,26.7628024 29.5017571,26.7619641 L6.02918776,3.52816766 L76.9709816,3.52816766 L76.9709816,3.52816766 Z M3.53190408,5.99971257 L25.7581184,27.9998323 L3.53190408,50.0001198 L3.53190408,5.99971257 L3.53190408,5.99971257 Z M6.02918776,52.4718323 L28.255402,30.4715449 L40.2516122,42.3457246 C40.8663204,42.9541796 41.8274265,43.2576527 42.7488959,42.3457246 L54.7449367,30.4717126 L76.971151,52.4718323 L6.02918776,52.4718323 L6.02918776,52.4718323 Z M79.4680959,49.9997844 L57.242051,27.9998323 L79.4680959,5.99988024 L79.4680959,49.9997844 L79.4680959,49.9997844 Z"></path>
                </g>
            </g>
        </g>
    </g>
</svg>